<?xml version="1.0" encoding="UTF-8"?>
<svg id="Capa_1" data-name="Capa 1" xmlns="http://www.w3.org/2000/svg" viewBox="0 0 30 30">
  <defs>
    <style>
      .cls-1 {
        fill: #ed254e;
      }
    </style>
  </defs>
  <path class="cls-1" d="M19.14,13.79c-.21,0-.42.04-.61.13s-.36.21-.5.36c-.14.15-.25.34-.32.53-.07.2-.09.41-.07.62h3.09c.02-.22,0-.43-.08-.64-.07-.2-.19-.39-.34-.55-.15-.16-.33-.28-.54-.35-.2-.08-.42-.11-.64-.1Z"/>
  <path class="cls-1" d="M11.24,15.45h-1.84v2.91h1.5c1.5,0,2.16-.49,2.16-1.5s-.69-1.41-1.82-1.41Z"/>
  <path class="cls-1" d="M12.54,12.78c0-.8-.52-1.27-1.43-1.27h-1.72v2.61h1.27c1.34,0,1.88-.48,1.88-1.34Z"/>
  <path class="cls-1" d="M15,0c-2.97,0-5.87.88-8.33,2.53-2.47,1.65-4.39,3.99-5.52,6.73C0,12-.29,15.02.29,17.93c.58,2.91,2.01,5.58,4.11,7.68,2.1,2.1,4.77,3.53,7.68,4.11,2.91.58,5.93.28,8.67-.85,2.74-1.14,5.08-3.06,6.73-5.52,1.65-2.47,2.53-5.37,2.53-8.33,0-1.97-.39-3.92-1.14-5.74-.75-1.82-1.86-3.47-3.25-4.87-1.39-1.39-3.05-2.5-4.87-3.25-1.82-.75-3.77-1.14-5.74-1.14ZM11.55,19.8h-4.05v-9.75h4.05c1.76,0,2.91.91,2.91,2.4.02.5-.14.99-.44,1.38-.31.39-.75.66-1.24.76.31,0,.62.08.9.21.28.13.53.31.74.55.21.23.37.5.47.79.1.29.14.6.11.91,0,1.74-1.5,2.74-3.45,2.74ZM16.88,10.8h4.5v.75h-4.5v-.75ZM22.5,16.58h-4.95v.21c-.03.23,0,.46.07.68.07.22.19.42.34.59.15.17.34.3.56.39.21.09.44.13.67.13.32.05.65-.02.93-.19.28-.17.48-.44.57-.75h1.82c-.16.72-.58,1.36-1.18,1.78-.6.43-1.34.62-2.07.54-.47.05-.94,0-1.39-.16-.44-.16-.85-.41-1.19-.74-.34-.33-.6-.73-.77-1.17-.17-.44-.23-.91-.2-1.38v-.66c-.03-.46.04-.91.2-1.34.16-.43.41-.81.74-1.13.32-.32.72-.57,1.14-.72.43-.16.89-.22,1.34-.18.45-.03.91.04,1.33.2s.81.41,1.13.73c.32.32.57.71.72,1.14.16.43.22.88.19,1.33v.71Z"/>
</svg>