<svg id="Capa_1" data-name="Capa 1" xmlns="http://www.w3.org/2000/svg" viewBox="0 0 446.76 152.93"><defs><style>.cls-1{fill:#fff;}</style></defs><path class="cls-1" d="M64.67,50.77h-.31L40.5,102H51.35l3.18-7h20l3.16,7H88.56ZM58.44,86.43l6.11-13.35,6.07,13.35Z"/><polygon class="cls-1" points="166.95 61.89 166.95 52.01 136.84 52.01 136.84 101.95 166.95 101.95 166.95 91.98 146.88 91.98 146.88 81.67 164.1 81.67 164.1 71.65 146.88 71.65 146.88 61.89 166.95 61.89"/><polygon class="cls-1" points="184.36 91.98 184.36 52.01 174.33 52.01 174.33 101.95 204.45 101.95 204.45 91.98 184.36 91.98"/><path class="cls-1" d="M224.91,20.06l-141.4.11L78.18,30.4l-58.08,0L20,132.65l117.82,0,6-10.23h81ZM40.45,122.54H30.22V102.09l0-51.32V40.54H84.09l0,.1,5.92,10.13,15.4,26.39L90.79,102h11.53l8.87-15L120,102l5.93,10.15,0,.08,5.94,10.15,0,.07Zm174.3-10.37H204.52l-66.64.06,0-.07-6-10.16L117.07,77l14.78-25H120.32l-9,15.23-9.74-16.48-6-10.14,0-.09-6-10.14,0-.09H214.69V50.75l.05,51.2Z"/><path class="cls-1" d="M258,52.6c0,7.59-4.89,12.33-12.74,12.33h-7V40.21h7C253.09,40.2,258,45,258,52.6Zm-3.92,0c0-5.25-3.41-8.53-8.84-8.53h-3.16v17h3.21C250.67,61.07,254.06,57.8,254.06,52.59Z"/><path class="cls-1" d="M275.34,40.21h3.88V64.93h-3.88Z"/><path class="cls-1" d="M296.38,60.59l3.07-2.19a6.19,6.19,0,0,0,5.53,3c2.78,0,4.88-1.34,4.88-3.22,0-2.29-3.25-3.67-6.13-4.91s-6.12-2.79-6.12-6.67c0-4,3.51-6.87,8-6.87,3.52,0,6.16,1.7,7.17,4.41l-2.88,2a4.62,4.62,0,0,0-4.26-2.61c-2.27,0-4.08,1.41-4.08,3.16,0,1.93,2.28,2.62,5.29,3.91,3.91,1.72,6.95,3.6,6.95,7.5,0,4.39-3.81,7.21-8.82,7.21C300.87,65.35,297.79,63.45,296.38,60.59Z"/><path class="cls-1" d="M334.8,44v6.33h9.35v3.87H334.8v6.84h10.84v3.86H330.92V40.21h14.72V44Z"/><path class="cls-1" d="M383.35,40.15V65.36h-.19L367.35,48.85V65h-3.88V39.78h.2l15.78,16.49V40.15ZM369.3,37.71,367.38,37c.62-2.83,2.55-3.31,3.71-3.31,2.32,0,3,2.09,4.65,2.09.95,0,1.49-.8,1.8-2l1.9.74c-.62,2.83-2.55,3.31-3.71,3.31-2.32,0-3-2.07-4.64-2.07C370.13,35.72,369.59,36.52,369.3,37.71Z"/><path class="cls-1" d="M400.76,52.6a12.78,12.78,0,1,1,12.76,12.73A12.82,12.82,0,0,1,400.76,52.6Zm21.63,0a8.86,8.86,0,1,0-8.87,8.84A8.9,8.9,0,0,0,422.39,52.57Z"/><path class="cls-1" d="M260.8,90.82c0,7.35-5.34,12-11.76,12a12.78,12.78,0,1,1-.14-25.55,13.82,13.82,0,0,1,9,3.79l-2.16,3.22a10.33,10.33,0,0,0-6.89-3.1,8.87,8.87,0,1,0,.36,17.73c4.24,0,7.43-2.59,7.43-6.36v-.08H249V88.89h11.7A18.64,18.64,0,0,1,260.8,90.82Z"/><path class="cls-1" d="M285.51,102.39l-6.65-9.57h-3v9.57h-3.88V77.67h7.68A8.17,8.17,0,0,1,288,85.61a7.22,7.22,0,0,1-4.89,6.88l7.19,9.9ZM279.7,89.6A4.23,4.23,0,0,0,284,85.52a4.14,4.14,0,0,0-4.28-4h-3.9V89.6Z"/><path class="cls-1" d="M316,98.63h-11.7l-1.69,3.76h-4.2L310,77.16h.23l11.62,25.23h-4.2Zm-1.5-3.33-4.34-9.66-4.36,9.66Zm-3.9-19.67h-2.8l3-5h3.42Z"/><path class="cls-1" d="M336,81.47v6.61h9.35v3.86H336v10.48h-3.88V77.6h14.72v3.87Z"/><path class="cls-1" d="M357.48,77.67h3.88v24.72h-3.88Z"/><path class="cls-1" d="M372.48,90a12.91,12.91,0,0,1,12.76-12.8A12.46,12.46,0,0,1,393.82,81l-2.25,3a9.19,9.19,0,0,0-6.41-2.88,8.86,8.86,0,0,0,0,17.71A9.2,9.2,0,0,0,391.58,96l2.24,3.12a11.77,11.77,0,0,1-8.52,3.71A12.86,12.86,0,0,1,372.48,90Z"/><path class="cls-1" d="M402.21,90.06A12.78,12.78,0,1,1,415,102.78,12.82,12.82,0,0,1,402.21,90.06Zm21.63,0A8.86,8.86,0,1,0,415,98.86,8.9,8.9,0,0,0,423.84,90Z"/></svg>